<svg width="309" height="36" viewBox="0 0 309 36" fill="none" xmlns="http://www.w3.org/2000/svg">
<path d="M21.23 28.61H8.135L5.885 35H0.53L11.735 3.68H17.675L28.88 35H23.48L21.23 28.61ZM19.79 24.425L14.705 9.89L9.575 24.425H19.79ZM31.637 10.295C31.817 7.505 32.882 5.33 34.832 3.77C36.812 2.21 39.332 1.43 42.392 1.43C44.492 1.43 46.307 1.805 47.837 2.555C49.367 3.305 50.522 4.325 51.302 5.615C52.082 6.905 52.472 8.36 52.472 9.98C52.472 11.84 51.977 13.43 50.987 14.75C49.997 16.07 48.812 16.955 47.432 17.405V17.585C49.202 18.125 50.582 19.115 51.572 20.555C52.562 21.965 53.057 23.78 53.057 26C53.057 27.77 52.652 29.345 51.842 30.725C51.032 32.105 49.832 33.2 48.242 34.01C46.652 34.79 44.747 35.18 42.527 35.18C39.287 35.18 36.617 34.355 34.517 32.705C32.447 31.025 31.337 28.625 31.187 25.505H36.137C36.257 27.095 36.872 28.4 37.982 29.42C39.092 30.41 40.592 30.905 42.482 30.905C44.312 30.905 45.722 30.41 46.712 29.42C47.702 28.4 48.197 27.095 48.197 25.505C48.197 23.405 47.522 21.92 46.172 21.05C44.852 20.15 42.812 19.7 40.052 19.7H38.882V15.47H40.097C42.527 15.44 44.372 15.035 45.632 14.255C46.922 13.475 47.567 12.245 47.567 10.565C47.567 9.125 47.102 7.985 46.172 7.145C45.242 6.275 43.922 5.84 42.212 5.84C40.532 5.84 39.227 6.275 38.297 7.145C37.367 7.985 36.812 9.035 36.632 10.295H31.637Z" fill="#3EA8A2"/>
<path d="M88.3152 3.725V7.91H79.9902V35H74.8602V7.91H66.4902V3.725H88.3152ZM97.2905 13.805C98.0405 12.545 99.0305 11.57 100.261 10.88C101.521 10.16 103.006 9.8 104.716 9.8V15.11H103.411C101.401 15.11 99.8705 15.62 98.8205 16.64C97.8005 17.66 97.2905 19.43 97.2905 21.95V35H92.1605V10.205H97.2905V13.805ZM106.371 22.49C106.371 20 106.881 17.795 107.901 15.875C108.951 13.955 110.361 12.47 112.131 11.42C113.931 10.34 115.911 9.8 118.071 9.8C120.021 9.8 121.716 10.19 123.156 10.97C124.626 11.72 125.796 12.665 126.666 13.805V10.205H131.841V35H126.666V31.31C125.796 32.48 124.611 33.455 123.111 34.235C121.611 35.015 119.901 35.405 117.981 35.405C115.851 35.405 113.901 34.865 112.131 33.785C110.361 32.675 108.951 31.145 107.901 29.195C106.881 27.215 106.371 24.98 106.371 22.49ZM126.666 22.58C126.666 20.87 126.306 19.385 125.586 18.125C124.896 16.865 123.981 15.905 122.841 15.245C121.701 14.585 120.471 14.255 119.151 14.255C117.831 14.255 116.601 14.585 115.461 15.245C114.321 15.875 113.391 16.82 112.671 18.08C111.981 19.31 111.636 20.78 111.636 22.49C111.636 24.2 111.981 25.7 112.671 26.99C113.391 28.28 114.321 29.27 115.461 29.96C116.631 30.62 117.861 30.95 119.151 30.95C120.471 30.95 121.701 30.62 122.841 29.96C123.981 29.3 124.896 28.34 125.586 27.08C126.306 25.79 126.666 24.29 126.666 22.58ZM149.739 9.8C151.689 9.8 153.429 10.205 154.959 11.015C156.519 11.825 157.734 13.025 158.604 14.615C159.474 16.205 159.909 18.125 159.909 20.375V35H154.824V21.14C154.824 18.92 154.269 17.225 153.159 16.055C152.049 14.855 150.534 14.255 148.614 14.255C146.694 14.255 145.164 14.855 144.024 16.055C142.914 17.225 142.359 18.92 142.359 21.14V35H137.229V10.205H142.359V13.04C143.199 12.02 144.264 11.225 145.554 10.655C146.874 10.085 148.269 9.8 149.739 9.8ZM174.103 35.405C172.153 35.405 170.398 35.06 168.838 34.37C167.308 33.65 166.093 32.69 165.193 31.49C164.293 30.26 163.813 28.895 163.753 27.395H169.063C169.153 28.445 169.648 29.33 170.548 30.05C171.478 30.74 172.633 31.085 174.013 31.085C175.453 31.085 176.563 30.815 177.343 30.275C178.153 29.705 178.558 28.985 178.558 28.115C178.558 27.185 178.108 26.495 177.208 26.045C176.338 25.595 174.943 25.1 173.023 24.56C171.163 24.05 169.648 23.555 168.478 23.075C167.308 22.595 166.288 21.86 165.418 20.87C164.578 19.88 164.158 18.575 164.158 16.955C164.158 15.635 164.548 14.435 165.328 13.355C166.108 12.245 167.218 11.375 168.658 10.745C170.128 10.115 171.808 9.8 173.698 9.8C176.518 9.8 178.783 10.52 180.493 11.96C182.233 13.37 183.163 15.305 183.283 17.765H178.153C178.063 16.655 177.613 15.77 176.803 15.11C175.993 14.45 174.898 14.12 173.518 14.12C172.168 14.12 171.133 14.375 170.413 14.885C169.693 15.395 169.333 16.07 169.333 16.91C169.333 17.57 169.573 18.125 170.053 18.575C170.533 19.025 171.118 19.385 171.808 19.655C172.498 19.895 173.518 20.21 174.868 20.6C176.668 21.08 178.138 21.575 179.278 22.085C180.448 22.565 181.453 23.285 182.293 24.245C183.133 25.205 183.568 26.48 183.598 28.07C183.598 29.48 183.208 30.74 182.428 31.85C181.648 32.96 180.538 33.83 179.098 34.46C177.688 35.09 176.023 35.405 174.103 35.405ZM198.186 14.39H193.596V35H188.421V14.39H185.496V10.205H188.421V8.45C188.421 5.6 189.171 3.53 190.671 2.24C192.201 0.919999 194.586 0.259999 197.826 0.259999V4.535C196.266 4.535 195.171 4.835 194.541 5.435C193.911 6.005 193.596 7.01 193.596 8.45V10.205H198.186V14.39ZM212.137 35.405C209.797 35.405 207.682 34.88 205.792 33.83C203.902 32.75 202.417 31.25 201.337 29.33C200.257 27.38 199.717 25.13 199.717 22.58C199.717 20.06 200.272 17.825 201.382 15.875C202.492 13.925 204.007 12.425 205.927 11.375C207.847 10.325 209.992 9.8 212.362 9.8C214.732 9.8 216.877 10.325 218.797 11.375C220.717 12.425 222.232 13.925 223.342 15.875C224.452 17.825 225.007 20.06 225.007 22.58C225.007 25.1 224.437 27.335 223.297 29.285C222.157 31.235 220.597 32.75 218.617 33.83C216.667 34.88 214.507 35.405 212.137 35.405ZM212.137 30.95C213.457 30.95 214.687 30.635 215.827 30.005C216.997 29.375 217.942 28.43 218.662 27.17C219.382 25.91 219.742 24.38 219.742 22.58C219.742 20.78 219.397 19.265 218.707 18.035C218.017 16.775 217.102 15.83 215.962 15.2C214.822 14.57 213.592 14.255 212.272 14.255C210.952 14.255 209.722 14.57 208.582 15.2C207.472 15.83 206.587 16.775 205.927 18.035C205.267 19.265 204.937 20.78 204.937 22.58C204.937 25.25 205.612 27.32 206.962 28.79C208.342 30.23 210.067 30.95 212.137 30.95ZM233.859 13.805C234.609 12.545 235.599 11.57 236.829 10.88C238.089 10.16 239.574 9.8 241.284 9.8V15.11H239.979C237.969 15.11 236.439 15.62 235.389 16.64C234.369 17.66 233.859 19.43 233.859 21.95V35H228.729V10.205H233.859V13.805ZM274.664 9.8C276.614 9.8 278.354 10.205 279.884 11.015C281.444 11.825 282.659 13.025 283.529 14.615C284.429 16.205 284.879 18.125 284.879 20.375V35H279.794V21.14C279.794 18.92 279.239 17.225 278.129 16.055C277.019 14.855 275.504 14.255 273.584 14.255C271.664 14.255 270.134 14.855 268.994 16.055C267.884 17.225 267.329 18.92 267.329 21.14V35H262.244V21.14C262.244 18.92 261.689 17.225 260.579 16.055C259.469 14.855 257.954 14.255 256.034 14.255C254.114 14.255 252.584 14.855 251.444 16.055C250.334 17.225 249.779 18.92 249.779 21.14V35H244.649V10.205H249.779V13.04C250.619 12.02 251.684 11.225 252.974 10.655C254.264 10.085 255.644 9.8 257.114 9.8C259.094 9.8 260.864 10.22 262.424 11.06C263.984 11.9 265.184 13.115 266.024 14.705C266.774 13.205 267.944 12.02 269.534 11.15C271.124 10.25 272.834 9.8 274.664 9.8ZM299.057 35.405C297.107 35.405 295.352 35.06 293.792 34.37C292.262 33.65 291.047 32.69 290.147 31.49C289.247 30.26 288.767 28.895 288.707 27.395H294.017C294.107 28.445 294.602 29.33 295.502 30.05C296.432 30.74 297.587 31.085 298.967 31.085C300.407 31.085 301.517 30.815 302.297 30.275C303.107 29.705 303.512 28.985 303.512 28.115C303.512 27.185 303.062 26.495 302.162 26.045C301.292 25.595 299.897 25.1 297.977 24.56C296.117 24.05 294.602 23.555 293.432 23.075C292.262 22.595 291.242 21.86 290.372 20.87C289.532 19.88 289.112 18.575 289.112 16.955C289.112 15.635 289.502 14.435 290.282 13.355C291.062 12.245 292.172 11.375 293.612 10.745C295.082 10.115 296.762 9.8 298.652 9.8C301.472 9.8 303.737 10.52 305.447 11.96C307.187 13.37 308.117 15.305 308.237 17.765H303.107C303.017 16.655 302.567 15.77 301.757 15.11C300.947 14.45 299.852 14.12 298.472 14.12C297.122 14.12 296.087 14.375 295.367 14.885C294.647 15.395 294.287 16.07 294.287 16.91C294.287 17.57 294.527 18.125 295.007 18.575C295.487 19.025 296.072 19.385 296.762 19.655C297.452 19.895 298.472 20.21 299.822 20.6C301.622 21.08 303.092 21.575 304.232 22.085C305.402 22.565 306.407 23.285 307.247 24.245C308.087 25.205 308.522 26.48 308.552 28.07C308.552 29.48 308.162 30.74 307.382 31.85C306.602 32.96 305.492 33.83 304.052 34.46C302.642 35.09 300.977 35.405 299.057 35.405Z" fill="black"/>
</svg>
