<svg width="81" height="30" viewBox="0 0 81 30" fill="none" xmlns="http://www.w3.org/2000/svg">
<path d="M14.304 12.7244H10.7528C10.7055 12.3598 10.6084 12.0308 10.4616 11.7372C10.3149 11.4437 10.1207 11.1927 9.87926 10.9844C9.63778 10.776 9.35133 10.6174 9.01989 10.5085C8.69318 10.3949 8.33097 10.3381 7.93324 10.3381C7.22775 10.3381 6.61932 10.5109 6.10795 10.8565C5.60133 11.2022 5.2107 11.7017 4.93608 12.3551C4.66619 13.0085 4.53125 13.7992 4.53125 14.7273C4.53125 15.6932 4.66856 16.5028 4.94318 17.1562C5.22254 17.8049 5.61316 18.295 6.11506 18.6264C6.62169 18.9531 7.22064 19.1165 7.91193 19.1165C8.30019 19.1165 8.65294 19.0668 8.97017 18.9673C9.29214 18.8679 9.57386 18.7235 9.81534 18.5341C10.0616 18.34 10.2628 18.1056 10.419 17.831C10.58 17.5516 10.6913 17.2367 10.7528 16.8864L14.304 16.9077C14.2424 17.5516 14.0554 18.1861 13.7429 18.8111C13.4351 19.4361 13.0114 20.0066 12.4716 20.5227C11.9318 21.0341 11.2737 21.4413 10.4972 21.7443C9.72538 22.0473 8.83996 22.1989 7.84091 22.1989C6.52462 22.1989 5.34564 21.91 4.30398 21.3324C3.26705 20.75 2.44792 19.9025 1.84659 18.7898C1.24527 17.6771 0.944602 16.3229 0.944602 14.7273C0.944602 13.1269 1.25 11.7704 1.8608 10.6577C2.47159 9.54498 3.29782 8.69981 4.33949 8.12216C5.38116 7.54451 6.5483 7.25568 7.84091 7.25568C8.72159 7.25568 9.53598 7.37879 10.2841 7.625C11.0322 7.86648 11.6903 8.22159 12.2585 8.69034C12.8267 9.15436 13.2884 9.72491 13.6435 10.402C13.9986 11.0791 14.2188 11.8532 14.304 12.7244ZM19.5887 15.7784V22H16.1157V7.45455H19.4751V13.0938H19.5958C19.842 12.4214 20.2445 11.8958 20.8032 11.517C21.3666 11.1383 22.0556 10.9489 22.87 10.9489C23.637 10.9489 24.3046 11.1193 24.8728 11.4602C25.441 11.7964 25.8813 12.2723 26.1938 12.8878C26.5111 13.5033 26.6673 14.223 26.6626 15.0469V22H23.1896V15.7287C23.1943 15.1226 23.0428 14.6491 22.735 14.3082C22.4272 13.9673 21.994 13.7969 21.4353 13.7969C21.0707 13.7969 20.7487 13.8774 20.4694 14.0384C20.1948 14.1946 19.9793 14.4195 19.8231 14.7131C19.6716 15.0066 19.5934 15.3617 19.5887 15.7784ZM33.73 22.206C32.5889 22.206 31.604 21.9811 30.7754 21.5312C29.9516 21.0767 29.3171 20.4304 28.872 19.5923C28.4317 18.7495 28.2115 17.7481 28.2115 16.5881C28.2115 15.4612 28.434 14.4763 28.8791 13.6335C29.3242 12.786 29.9516 12.1278 30.7612 11.6591C31.5709 11.1856 32.525 10.9489 33.6234 10.9489C34.4 10.9489 35.1102 11.0696 35.7541 11.3111C36.3981 11.5526 36.9544 11.91 37.4232 12.3835C37.8919 12.857 38.2565 13.4418 38.5169 14.1378C38.7773 14.8291 38.9075 15.6222 38.9075 16.517V17.3835H29.426V15.3665H35.676C35.6713 14.9972 35.5837 14.6681 35.4132 14.3793C35.2428 14.0904 35.0084 13.8655 34.7101 13.7045C34.4165 13.5388 34.078 13.456 33.6945 13.456C33.3062 13.456 32.9582 13.5436 32.6504 13.7188C32.3427 13.8892 32.0988 14.1236 31.9189 14.4219C31.739 14.7154 31.6443 15.0492 31.6348 15.4233V17.4759C31.6348 17.9209 31.7224 18.3116 31.8976 18.6477C32.0728 18.9792 32.3214 19.2372 32.6433 19.4219C32.9653 19.6065 33.3488 19.6989 33.7939 19.6989C34.1017 19.6989 34.381 19.6562 34.632 19.571C34.8829 19.4858 35.0983 19.3603 35.2783 19.1946C35.4582 19.0289 35.5931 18.8253 35.6831 18.5838L38.872 18.6761C38.7394 19.3911 38.4482 20.0137 37.9984 20.544C37.5534 21.0696 36.9686 21.4792 36.2442 21.7727C35.5197 22.0616 34.6817 22.206 33.73 22.206ZM43.9543 7.45455V22H40.4813V7.45455H43.9543ZM49.4379 7.45455V22H45.9649V7.45455H49.4379ZM53.4016 22.206C52.8903 22.206 52.4523 22.026 52.0877 21.6662C51.7279 21.3063 51.5503 20.8707 51.555 20.3594C51.5503 19.8575 51.7279 19.429 52.0877 19.0739C52.4523 18.714 52.8903 18.5341 53.4016 18.5341C53.8846 18.5341 54.3107 18.714 54.68 19.0739C55.0541 19.429 55.2435 19.8575 55.2482 20.3594C55.2435 20.7003 55.1535 21.0104 54.9783 21.2898C54.8079 21.5691 54.583 21.7917 54.3036 21.9574C54.029 22.1231 53.7283 22.206 53.4016 22.206Z" fill="black"/>
<path d="M78.738 16.13C78.7431 16.3487 78.6763 16.563 78.548 16.74C78.4213 16.9206 78.2385 17.0542 78.028 17.12L76.318 17.69C75.7908 17.864 75.3114 18.1584 74.918 18.55C74.5243 18.9419 74.2295 19.4217 74.058 19.95L73.458 21.65C73.3955 21.8541 73.2693 22.0328 73.098 22.16C72.9157 22.2854 72.6992 22.3517 72.478 22.35C72.2561 22.3595 72.0374 22.2949 71.8564 22.1663C71.6753 22.0378 71.5422 21.8526 71.478 21.64L70.908 19.93C70.7365 19.4017 70.4417 18.9219 70.048 18.53C69.6508 18.1408 69.1728 17.8438 68.648 17.66L66.938 17.1C66.7358 17.0286 66.5587 16.9 66.428 16.73C66.2955 16.5501 66.2222 16.3335 66.218 16.11C66.2085 15.8882 66.2731 15.6695 66.4017 15.4884C66.5303 15.3074 66.7154 15.1742 66.928 15.11L68.648 14.54C69.1814 14.3677 69.6663 14.0711 70.0627 13.6747C70.459 13.2783 70.7556 12.7935 70.928 12.26L71.498 10.57C71.5563 10.3621 71.6803 10.1786 71.8516 10.047C72.0228 9.91544 72.2321 9.84282 72.448 9.84004C72.663 9.84004 72.874 9.89904 73.058 10.01C73.24 10.135 73.38 10.313 73.458 10.52L74.038 12.26C74.2104 12.7935 74.5069 13.2783 74.9033 13.6747C75.2997 14.0711 75.7846 14.3677 76.318 14.54L78.018 15.14C78.2248 15.2078 78.4039 15.3412 78.528 15.52C78.6635 15.6946 78.7373 15.9091 78.738 16.13ZM68.739 9.77004C68.7375 9.96607 68.6783 10.1573 68.569 10.32C68.4508 10.481 68.2871 10.6029 68.099 10.67L66.839 11.09C66.486 11.212 66.166 11.41 65.899 11.67C65.6375 11.9358 65.4392 12.2571 65.319 12.61L64.889 13.85C64.8287 14.0417 64.7054 14.2074 64.539 14.32C64.3746 14.4348 64.1795 14.4975 63.979 14.5C63.774 14.4966 63.575 14.4303 63.409 14.31C63.2517 14.1904 63.1334 14.0269 63.069 13.84L62.659 12.59C62.5387 12.2401 62.3404 11.922 62.079 11.66C61.8223 11.392 61.5026 11.1926 61.149 11.08L59.899 10.66C59.705 10.599 59.5364 10.476 59.419 10.31C59.3394 10.1854 59.2884 10.0446 59.2698 9.89787C59.2512 9.75113 59.2653 9.60209 59.3112 9.46149C59.3571 9.32088 59.4337 9.19221 59.5353 9.08475C59.637 8.97729 59.7612 8.89371 59.899 8.84004L61.149 8.43004C61.5027 8.30654 61.824 8.10482 62.0889 7.83992C62.3538 7.57501 62.5555 7.25374 62.679 6.90004L63.089 5.67004C63.1479 5.48571 63.2591 5.32244 63.409 5.20004C63.5683 5.08002 63.7598 5.01037 63.959 5.00004C64.1608 4.99462 64.3595 5.0504 64.529 5.16004C64.6958 5.27265 64.8248 5.43297 64.899 5.62004L65.319 6.90004C65.4425 7.25374 65.6442 7.57501 65.9091 7.83992C66.174 8.10482 66.4953 8.30654 66.849 8.43004L68.099 8.86004C68.2859 8.92426 68.4472 9.04698 68.559 9.21004C68.6774 9.37264 68.7404 9.56892 68.739 9.77004ZM74.528 4.41004C74.5189 4.59237 74.4601 4.76874 74.358 4.92004C74.2539 5.06264 74.1066 5.16786 73.938 5.22004L73.318 5.43004C73.1976 5.4716 73.0882 5.54002 72.9981 5.63011C72.908 5.7202 72.8396 5.8296 72.798 5.95004L72.578 6.58004C72.5176 6.73347 72.4176 6.86808 72.288 6.97004C72.1406 7.08814 71.9569 7.15173 71.768 7.15004C71.595 7.14008 71.4269 7.08863 71.278 7.00004C71.1294 6.88899 71.0179 6.73561 70.958 6.56004L70.748 5.94004C70.711 5.81747 70.642 5.707 70.548 5.62004C70.4598 5.52753 70.3498 5.45874 70.228 5.42004L69.608 5.22004C69.443 5.15571 69.2981 5.04874 69.188 4.91004C69.0831 4.76074 69.0272 4.58252 69.028 4.40004C69.0338 4.21712 69.0929 4.03987 69.198 3.89004C69.3049 3.75031 69.4512 3.64581 69.618 3.59004L70.228 3.39004C70.351 3.34773 70.4636 3.27953 70.558 3.19004C70.6468 3.09507 70.7149 2.9827 70.758 2.86004L70.968 2.24004C71.028 2.08504 71.123 1.94804 71.248 1.84004C71.3915 1.73415 71.5606 1.66855 71.738 1.65004C71.9267 1.64896 72.1114 1.70471 72.268 1.81004C72.409 1.91609 72.5194 2.05754 72.588 2.22004L72.798 2.86004C72.8412 2.98266 72.9093 3.09502 72.998 3.19004C73.091 3.27641 73.1996 3.34429 73.318 3.39004L73.948 3.60004C74.1082 3.66308 74.2494 3.76641 74.358 3.90004C74.4671 4.04783 74.5266 4.22636 74.528 4.41004Z" fill="#6100FF"/>
</svg>
